<?xml version="1.0" encoding="UTF-8" standalone="no"?>
<!-- Generator: Adobe Illustrator 19.0.0, SVG Export Plug-In . SVG Version: 6.00 Build 0)  -->

<svg
   xmlns:dc="http://purl.org/dc/elements/1.1/"
   xmlns:cc="http://creativecommons.org/ns#"
   xmlns:rdf="http://www.w3.org/1999/02/22-rdf-syntax-ns#"
   xmlns:svg="http://www.w3.org/2000/svg"
   xmlns="http://www.w3.org/2000/svg"
   xmlns:sodipodi="http://sodipodi.sourceforge.net/DTD/sodipodi-0.dtd"
   xmlns:inkscape="http://www.inkscape.org/namespaces/inkscape"
   version="1.1"
   id="Layer_1"
   x="0px"
   y="0px"
   viewBox="0 0 166.5 24.8"
   style="enable-background:new 0 0 166.5 24.8;"
   xml:space="preserve"
   inkscape:version="0.91 r13725"
   sodipodi:docname="cinnamon.svg"><metadata
     id="metadata36"><rdf:RDF><cc:Work
         rdf:about=""><dc:format>image/svg+xml</dc:format><dc:type
           rdf:resource="http://purl.org/dc/dcmitype/StillImage" /></cc:Work></rdf:RDF></metadata><defs
     id="defs34" /><sodipodi:namedview
     pagecolor="#ffffff"
     bordercolor="#666666"
     borderopacity="1"
     objecttolerance="10"
     gridtolerance="10"
     guidetolerance="10"
     inkscape:pageopacity="0"
     inkscape:pageshadow="2"
     inkscape:window-width="1360"
     inkscape:window-height="710"
     id="namedview32"
     showgrid="false"
     inkscape:zoom="1.7477477"
     inkscape:cx="-9.1546392"
     inkscape:cy="11.827835"
     inkscape:window-x="0"
     inkscape:window-y="0"
     inkscape:window-maximized="1"
     inkscape:current-layer="Layer_1" /><style
     type="text/css"
     id="style3">
	.st0{fill-rule:evenodd;clip-rule:evenodd;fill:#DC682E;}
	.st1{fill-rule:evenodd;clip-rule:evenodd;fill:none;stroke:#DC682E;stroke-width:2;stroke-miterlimit:10;}
	.text{fill:#FFFFFF;}
</style><g
     id="XMLID_156_"><path
       id="XMLID_157_"
       class="text"
       d="M1.3,12.4c0-1.3,0.2-2.6,0.7-3.8c0.4-1.3,1.1-2.4,2-3.4c0.9-1,1.9-1.8,3.2-2.4c1.3-0.6,2.7-0.9,4.3-0.9   c1.9,0,3.5,0.4,4.9,1.3c1.3,0.9,2.3,2,3,3.4l-1.7,1c-0.3-0.7-0.8-1.3-1.2-1.8s-1-0.9-1.6-1.2c-0.6-0.3-1.1-0.5-1.7-0.6   c-0.6-0.1-1.2-0.2-1.8-0.2C10,3.7,8.9,4,7.9,4.5c-1,0.5-1.8,1.2-2.5,2S4.3,8.3,3.9,9.4c-0.3,1-0.5,2.1-0.5,3.2   c0,1.2,0.2,2.3,0.6,3.4c0.4,1.1,1,2,1.7,2.9s1.5,1.5,2.5,2s2,0.7,3.2,0.7c0.6,0,1.2-0.1,1.8-0.2s1.2-0.4,1.8-0.7   c0.6-0.3,1.1-0.7,1.6-1.2c0.5-0.5,0.9-1.1,1.3-1.8l1.7,0.9c-0.3,0.8-0.8,1.5-1.4,2.1c-0.6,0.6-1.3,1.1-2.1,1.5   c-0.8,0.4-1.6,0.7-2.4,1c-0.9,0.2-1.7,0.3-2.5,0.3c-1.5,0-2.8-0.3-4-1S5,21,4.1,19.9c-0.9-1-1.6-2.2-2.1-3.5   C1.6,15.1,1.3,13.8,1.3,12.4z" /><path
       id="XMLID_159_"
       class="text"
       d="M23.4,23.2V2h2.1v21.3H23.4z" /><path
       id="XMLID_161_"
       class="text"
       d="M32.9,5.8v17.4h-2.1V1.9h1.6l14.1,17.7V2h2.1v21.3h-1.8L32.9,5.8z" /><path
       id="XMLID_163_"
       class="text"
       d="M56.1,5.8v17.4H54V1.9h1.6l14.1,17.7V2h2.1v21.3H70L56.1,5.8z" /><path
       id="XMLID_165_"
       class="text"
       d="M75,23.2l8.9-21.3h1.7l8.9,21.3h-2.3l-2.8-6.7h-9.6l-2.7,6.7H75z M84.8,4.4l-4.4,10.5H89L84.8,4.4z" /><path
       id="XMLID_168_"
       class="text"
       d="M116.5,23.2V5.7l-7.8,13.5h-1.2L99.7,5.7v17.5h-2.1V1.9h2.1l8.3,14.6l8.3-14.6h2.1v21.3H116.5z" /><path
       id="XMLID_170_"
       class="text"
       d="M149,5.8v17.4H147V1.9h1.6l14.1,17.7V2h2.1v21.3H163L149,5.8z" /></g><g
     id="XMLID_140_"><path
       id="XMLID_141_"
       class="text"
       d="M1.3,12.4c0-1.3,0.2-2.6,0.7-3.8c0.4-1.3,1.1-2.4,2-3.4c0.9-1,1.9-1.8,3.2-2.4c1.3-0.6,2.7-0.9,4.3-0.9   c1.9,0,3.5,0.4,4.9,1.3c1.3,0.9,2.3,2,3,3.4l-1.7,1c-0.3-0.7-0.8-1.3-1.2-1.8s-1-0.9-1.6-1.2c-0.6-0.3-1.1-0.5-1.7-0.6   c-0.6-0.1-1.2-0.2-1.8-0.2C10,3.7,8.9,4,7.9,4.5c-1,0.5-1.8,1.2-2.5,2S4.3,8.3,3.9,9.4c-0.3,1-0.5,2.1-0.5,3.2   c0,1.2,0.2,2.3,0.6,3.4c0.4,1.1,1,2,1.7,2.9s1.5,1.5,2.5,2s2,0.7,3.2,0.7c0.6,0,1.2-0.1,1.8-0.2s1.2-0.4,1.8-0.7   c0.6-0.3,1.1-0.7,1.6-1.2c0.5-0.5,0.9-1.1,1.3-1.8l1.7,0.9c-0.3,0.8-0.8,1.5-1.4,2.1c-0.6,0.6-1.3,1.1-2.1,1.5   c-0.8,0.4-1.6,0.7-2.4,1c-0.9,0.2-1.7,0.3-2.5,0.3c-1.5,0-2.8-0.3-4-1S5,21,4.1,19.9c-0.9-1-1.6-2.2-2.1-3.5   C1.6,15.1,1.3,13.8,1.3,12.4z" /><path
       id="XMLID_143_"
       class="text"
       d="M23.4,23.2V2h2.1v21.3H23.4z" /><path
       id="XMLID_145_"
       class="text"
       d="M32.9,5.8v17.4h-2.1V1.9h1.6l14.1,17.7V2h2.1v21.3h-1.8L32.9,5.8z" /><path
       id="XMLID_147_"
       class="text"
       d="M56.1,5.8v17.4H54V1.9h1.6l14.1,17.7V2h2.1v21.3H70L56.1,5.8z" /><path
       id="XMLID_149_"
       class="text"
       d="M75,23.2l8.9-21.3h1.7l8.9,21.3h-2.3l-2.8-6.7h-9.6l-2.7,6.7H75z M84.8,4.4l-4.4,10.5H89L84.8,4.4z" /><path
       id="XMLID_152_"
       class="text"
       d="M116.5,23.2V5.7l-7.8,13.5h-1.2L99.7,5.7v17.5h-2.1V1.9h2.1l8.3,14.6l8.3-14.6h2.1v21.3H116.5z" /><path
       id="XMLID_154_"
       class="text"
       d="M149,5.8v17.4H147V1.9h1.6l14.1,17.7V2h2.1v21.3H163L149,5.8z" /></g><g
     id="XMLID_7_"
     style="fill:#1a1a1a"><path
       id="XMLID_125_"
       class="text"
       d="M1.3,12.4c0-1.3,0.2-2.6,0.7-3.8c0.4-1.3,1.1-2.4,2-3.4c0.9-1,1.9-1.8,3.2-2.4c1.3-0.6,2.7-0.9,4.3-0.9   c1.9,0,3.5,0.4,4.9,1.3c1.3,0.9,2.3,2,3,3.4l-1.7,1c-0.3-0.7-0.8-1.3-1.2-1.8s-1-0.9-1.6-1.2c-0.6-0.3-1.1-0.5-1.7-0.6   c-0.6-0.1-1.2-0.2-1.8-0.2C10,3.7,8.9,4,7.9,4.5c-1,0.5-1.8,1.2-2.5,2S4.3,8.3,3.9,9.4c-0.3,1-0.5,2.1-0.5,3.2   c0,1.2,0.2,2.3,0.6,3.4c0.4,1.1,1,2,1.7,2.9s1.5,1.5,2.5,2s2,0.7,3.2,0.7c0.6,0,1.2-0.1,1.8-0.2s1.2-0.4,1.8-0.7   c0.6-0.3,1.1-0.7,1.6-1.2c0.5-0.5,0.9-1.1,1.3-1.8l1.7,0.9c-0.3,0.8-0.8,1.5-1.4,2.1c-0.6,0.6-1.3,1.1-2.1,1.5   c-0.8,0.4-1.6,0.7-2.4,1c-0.9,0.2-1.7,0.3-2.5,0.3c-1.5,0-2.8-0.3-4-1S5,21,4.1,19.9c-0.9-1-1.6-2.2-2.1-3.5   C1.6,15.1,1.3,13.8,1.3,12.4z"
       style="fill:#1a1a1a" /><path
       id="XMLID_127_"
       class="text"
       d="M23.4,23.2V2h2.1v21.3H23.4z"
       style="fill:#1a1a1a" /><path
       id="XMLID_129_"
       class="text"
       d="M32.9,5.8v17.4h-2.1V1.9h1.6l14.1,17.7V2h2.1v21.3h-1.8L32.9,5.8z"
       style="fill:#1a1a1a" /><path
       id="XMLID_131_"
       class="text"
       d="M56.1,5.8v17.4H54V1.9h1.6l14.1,17.7V2h2.1v21.3H70L56.1,5.8z"
       style="fill:#1a1a1a" /><path
       id="XMLID_133_"
       class="text"
       d="M75,23.2l8.9-21.3h1.7l8.9,21.3h-2.3l-2.8-6.7h-9.6l-2.7,6.7H75z M84.8,4.4l-4.4,10.5H89L84.8,4.4z"
       style="fill:#1a1a1a" /><path
       id="XMLID_136_"
       class="text"
       d="M116.5,23.2V5.7l-7.8,13.5h-1.2L99.7,5.7v17.5h-2.1V1.9h2.1l8.3,14.6l8.3-14.6h2.1v21.3H116.5z"
       style="fill:#1a1a1a" /><path
       id="XMLID_138_"
       class="text"
       d="M149,5.8v17.4H147V1.9h1.6l14.1,17.7V2h2.1v21.3H163L149,5.8z"
       style="fill:#1a1a1a" /></g><path
     id="XMLID_9_"
     class="st0"
     d="M133.9,23.2c0.2,0,0.4-0.1,0.7-0.1c0.1,0,0.2,0,0.3-0.1c0.2,0,0.5-0.1,0.7-0.2  c0.1,0,0.2,0,0.3-0.1c0.3-0.1,0.6-0.2,0.9-0.3c0.1,0,0.1-0.1,0.2-0.1c0.2-0.1,0.5-0.2,0.7-0.3c0.1,0,0.2-0.1,0.3-0.2  c0.2-0.1,0.4-0.2,0.5-0.3c0.1-0.1,0.2-0.1,0.3-0.2c0.2-0.1,0.4-0.3,0.6-0.4c0.1,0,0.1-0.1,0.2-0.1c0.2-0.2,0.5-0.4,0.7-0.6  c0.1-0.1,0.1-0.1,0.2-0.2c0.2-0.2,0.3-0.3,0.4-0.5c0.1-0.1,0.1-0.2,0.2-0.3c0.1-0.2,0.2-0.3,0.4-0.5c0.1-0.1,0.1-0.2,0.2-0.3  c0.1-0.2,0.3-0.5,0.4-0.7c0,0,0-0.1,0.1-0.1c0.1-0.3,0.3-0.5,0.4-0.8c0-0.1,0.1-0.2,0.1-0.3c0-0.1,0.1-0.2,0.1-0.4l-5.4-6l-5.8,6.6  l2.8-5.6l-1.4-2.5l-8.7,10c0,0.1,0.1,0.1,0.1,0.2c0.2,0.2,0.3,0.5,0.5,0.7c0.1,0.1,0.2,0.2,0.3,0.3c0.2,0.2,0.4,0.4,0.6,0.6  c0.1,0.1,0.2,0.2,0.3,0.3c0.2,0.2,0.4,0.4,0.7,0.5c0.1,0.1,0.1,0.1,0.2,0.2c0.3,0.2,0.6,0.4,1,0.6c0.1,0,0.1,0.1,0.2,0.1  c0.3,0.1,0.6,0.3,0.9,0.4c0.1,0,0.2,0.1,0.4,0.1c0.2,0.1,0.5,0.2,0.8,0.2c0.1,0,0.3,0.1,0.4,0.1c0.3,0.1,0.5,0.1,0.8,0.2  c0.1,0,0.2,0,0.4,0.1c0.4,0,0.8,0.1,1.2,0.1c0.3,0,0.7,0,1,0C133.7,23.3,133.8,23.3,133.9,23.2z" /><g
     id="XMLID_5_"><path
       id="XMLID_3_"
       class="st1"
       d="M143.2,12.8c0,5.8-4.7,10.5-10.5,10.5c-5.8,0-10.5-4.7-10.5-10.5c0-5.8,4.7-10.5,10.5-10.5   C138.5,2.3,143.2,7,143.2,12.8z" /></g></svg>